{
  "accessors": [
    {
      "name": "Node-Mesh_0_positions",
      "componentType": 5126,
      "count": 19770,
      "min": [
        230.73155212402344,
        1,
        81.11778259277344
      ],
      "max": [
        351.7315673828125,
        35,
        120.11778259277344
      ],
      "type": "VEC3",
      "bufferView": 0,
      "byteOffset": 0
    },
    {
      "name": "Node-Mesh_0_normals",
      "componentType": 5126,
      "count": 19770,
      "min": [
        -1,
        -1,
        -1
      ],
      "max": [
        1,
        1,
        1
      ],
      "type": "VEC3",
      "bufferView": 1,
      "byteOffset": 0
    },
    {
      "name": "Node-Mesh_0_texcoords",
      "componentType": 5126,
      "count": 19770,
      "min": [
        0,
        0
      ],
      "max": [
        1,
        1
      ],
      "type": "VEC2",
      "bufferView": 2,
      "byteOffset": 0
    },
    {
      "name": "Node-Mesh_0_indices",
      "componentType": 5123,
      "count": 65550,
      "min": [
        0
      ],
      "max": [
        19769
      ],
      "type": "SCALAR",
      "bufferView": 3,
      "byteOffset": 0
    },
    {
      "name": "Node-Mesh_1_positions",
      "componentType": 5126,
      "count": 16981,
      "min": [
        236.59127807617188,
        30.125,
        91.24732971191406
      ],
      "max": [
        344.4398498535156,
        42.519107818603516,
        109.98823547363281
      ],
      "type": "VEC3",
      "bufferView": 0,
      "byteOffset": 237240
    },
    {
      "name": "Node-Mesh_1_normals",
      "componentType": 5126,
      "count": 16981,
      "min": [
        -0.997370719909668,
        -1,
        -0.997370719909668
      ],
      "max": [
        0.997370719909668,
        1,
        0.997370719909668
      ],
      "type": "VEC3",
      "bufferView": 1,
      "byteOffset": 237240
    },
    {
      "name": "Node-Mesh_1_texcoords",
      "componentType": 5126,
      "count": 16981,
      "min": [
        0,
        0
      ],
      "max": [
        1,
        1
      ],
      "type": "VEC2",
      "bufferView": 2,
      "byteOffset": 158160
    },
    {
      "name": "Node-Mesh_1_indices",
      "componentType": 5123,
      "count": 87504,
      "min": [
        0
      ],
      "max": [
        16980
      ],
      "type": "SCALAR",
      "bufferView": 3,
      "byteOffset": 131100
    },
    {
      "name": "Node-Mesh_2_positions",
      "componentType": 5126,
      "count": 3167,
      "min": [
        234.2999267578125,
        37.61366271972656,
        89.74720764160156
      ],
      "max": [
        347.56085205078125,
        45.644107818603516,
        113.76335906982422
      ],
      "type": "VEC3",
      "bufferView": 0,
      "byteOffset": 441012
    },
    {
      "name": "Node-Mesh_2_normals",
      "componentType": 5126,
      "count": 3167,
      "min": [
        -1,
        -1,
        -1
      ],
      "max": [
        1,
        1,
        1
      ],
      "type": "VEC3",
      "bufferView": 1,
      "byteOffset": 441012
    },
    {
      "name": "Node-Mesh_2_texcoords",
      "componentType": 5126,
      "count": 3167,
      "min": [
        0,
        0
      ],
      "max": [
        1,
        1
      ],
      "type": "VEC2",
      "bufferView": 2,
      "byteOffset": 294008
    },
    {
      "name": "Node-Mesh_2_indices",
      "componentType": 5123,
      "count": 11031,
      "min": [
        0
      ],
      "max": [
        3166
      ],
      "type": "SCALAR",
      "bufferView": 3,
      "byteOffset": 306108
    },
    {
      "name": "Node-Mesh_3_positions",
      "componentType": 5126,
      "count": 2805,
      "min": [
        230.73155212402344,
        35,
        81.11778259277344
      ],
      "max": [
        351.7315673828125,
        85,
        120.11778259277344
      ],
      "type": "VEC3",
      "bufferView": 0,
      "byteOffset": 479016
    },
    {
      "name": "Node-Mesh_3_normals",
      "componentType": 5126,
      "count": 2805,
      "min": [
        -1,
        -1,
        -1
      ],
      "max": [
        1,
        1,
        1
      ],
      "type": "VEC3",
      "bufferView": 1,
      "byteOffset": 479016
    },
    {
      "name": "Node-Mesh_3_texcoords",
      "componentType": 5126,
      "count": 2805,
      "min": [
        0,
        0
      ],
      "max": [
        1,
        1
      ],
      "type": "VEC2",
      "bufferView": 2,
      "byteOffset": 319344
    },
    {
      "name": "Node-Mesh_3_indices",
      "componentType": 5123,
      "count": 7524,
      "min": [
        0
      ],
      "max": [
        2804
      ],
      "type": "SCALAR",
      "bufferView": 3,
      "byteOffset": 328172
    },
    {
      "name": "Node-Mesh_4_positions",
      "componentType": 5126,
      "count": 5355,
      "min": [
        230.73155212402344,
        35,
        81.11778259277344
      ],
      "max": [
        351.7315673828125,
        85,
        120.11778259277344
      ],
      "type": "VEC3",
      "bufferView": 0,
      "byteOffset": 512676
    },
    {
      "name": "Node-Mesh_4_normals",
      "componentType": 5126,
      "count": 5355,
      "min": [
        -1,
        -1,
        -1
      ],
      "max": [
        1,
        1,
        1
      ],
      "type": "VEC3",
      "bufferView": 1,
      "byteOffset": 512676
    },
    {
      "name": "Node-Mesh_4_texcoords",
      "componentType": 5126,
      "count": 5355,
      "min": [
        0,
        0
      ],
      "max": [
        1,
        1
      ],
      "type": "VEC2",
      "bufferView": 2,
      "byteOffset": 341784
    },
    {
      "name": "Node-Mesh_4_indices",
      "componentType": 5123,
      "count": 13671,
      "min": [
        0
      ],
      "max": [
        5354
      ],
      "type": "SCALAR",
      "bufferView": 3,
      "byteOffset": 343220
    },
    {
      "name": "Node-Mesh_5_positions",
      "componentType": 5126,
      "count": 264,
      "min": [
        234.0065460205078,
        36.25,
        93.86778259277344
      ],
      "max": [
        348.45654296875,
        77.7699966430664,
        107.36778259277344
      ],
      "type": "VEC3",
      "bufferView": 0,
      "byteOffset": 576936
    },
    {
      "name": "Node-Mesh_5_normals",
      "componentType": 5126,
      "count": 264,
      "min": [
        -1,
        -1,
        -1
      ],
      "max": [
        1,
        1,
        1
      ],
      "type": "VEC3",
      "bufferView": 1,
      "byteOffset": 576936
    },
    {
      "name": "Node-Mesh_5_texcoords",
      "componentType": 5126,
      "count": 264,
      "min": [
        0,
        0
      ],
      "max": [
        1,
        1
      ],
      "type": "VEC2",
      "bufferView": 2,
      "byteOffset": 384624
    },
    {
      "name": "Node-Mesh_5_indices",
      "componentType": 5123,
      "count": 612,
      "min": [
        0
      ],
      "max": [
        263
      ],
      "type": "SCALAR",
      "bufferView": 3,
      "byteOffset": 370564
    },
    {
      "name": "Node-Mesh_6_positions",
      "componentType": 5126,
      "count": 24,
      "min": [
        232.73155212402344,
        35,
        82.74278259277344
      ],
      "max": [
        349.4815673828125,
        35,
        118.49278259277344
      ],
      "type": "VEC3",
      "bufferView": 0,
      "byteOffset": 580104
    },
    {
      "name": "Node-Mesh_6_normals",
      "componentType": 5126,
      "count": 24,
      "min": [
        0,
        -1,
        0
      ],
      "max": [
        0,
        1,
        0
      ],
      "type": "VEC3",
      "bufferView": 1,
      "byteOffset": 580104
    },
    {
      "name": "Node-Mesh_6_texcoords",
      "componentType": 5126,
      "count": 24,
      "min": [
        0,
        0
      ],
      "max": [
        1,
        1
      ],
      "type": "VEC2",
      "bufferView": 2,
      "byteOffset": 386736
    },
    {
      "name": "Node-Mesh_6_indices",
      "componentType": 5123,
      "count": 36,
      "min": [
        0
      ],
      "max": [
        23
      ],
      "type": "SCALAR",
      "bufferView": 3,
      "byteOffset": 371788
    },
    {
      "name": "Node-Mesh_7_positions",
      "componentType": 5126,
      "count": 384,
      "min": [
        251.7914581298828,
        5.5,
        83.11778259277344
      ],
      "max": [
        348.1907043457031,
        13.918941497802734,
        118.11778259277344
      ],
      "type": "VEC3",
      "bufferView": 0,
      "byteOffset": 580392
    },
    {
      "name": "Node-Mesh_7_normals",
      "componentType": 5126,
      "count": 384,
      "min": [
        -1,
        -1,
        -1
      ],
      "max": [
        1,
        1,
        1
      ],
      "type": "VEC3",
      "bufferView": 1,
      "byteOffset": 580392
    },
    {
      "name": "Node-Mesh_7_texcoords",
      "componentType": 5126,
      "count": 384,
      "min": [
        0,
        0
      ],
      "max": [
        1,
        1
      ],
      "type": "VEC2",
      "bufferView": 2,
      "byteOffset": 386928
    },
    {
      "name": "Node-Mesh_7_indices",
      "componentType": 5123,
      "count": 576,
      "min": [
        0
      ],
      "max": [
        383
      ],
      "type": "SCALAR",
      "bufferView": 3,
      "byteOffset": 371860
    },
    {
      "name": "Node-Mesh_8_positions",
      "componentType": 5126,
      "count": 1728,
      "min": [
        233.65931701660156,
        5.5,
        82.99856567382812
      ],
      "max": [
        330.7273254394531,
        25.63030433654785,
        118.23699951171875
      ],
      "type": "VEC3",
      "bufferView": 0,
      "byteOffset": 585000
    },
    {
      "name": "Node-Mesh_8_normals",
      "componentType": 5126,
      "count": 1728,
      "min": [
        -1,
        -1,
        -1
      ],
      "max": [
        1,
        1,
        1
      ],
      "type": "VEC3",
      "bufferView": 1,
      "byteOffset": 585000
    },
    {
      "name": "Node-Mesh_8_texcoords",
      "componentType": 5126,
      "count": 1728,
      "min": [
        0,
        0
      ],
      "max": [
        1,
        1
      ],
      "type": "VEC2",
      "bufferView": 2,
      "byteOffset": 390000
    },
    {
      "name": "Node-Mesh_8_indices",
      "componentType": 5123,
      "count": 2592,
      "min": [
        0
      ],
      "max": [
        1727
      ],
      "type": "SCALAR",
      "bufferView": 3,
      "byteOffset": 373012
    },
    {
      "name": "Node-Mesh_9_positions",
      "componentType": 5126,
      "count": 1536,
      "min": [
        251.83358764648438,
        18.501272201538086,
        83.11343383789062
      ],
      "max": [
        348.05828857421875,
        25.63157844543457,
        118.12213897705078
      ],
      "type": "VEC3",
      "bufferView": 0,
      "byteOffset": 605736
    },
    {
      "name": "Node-Mesh_9_normals",
      "componentType": 5126,
      "count": 1536,
      "min": [
        -1,
        -1,
        -1
      ],
      "max": [
        1,
        1,
        1
      ],
      "type": "VEC3",
      "bufferView": 1,
      "byteOffset": 605736
    },
    {
      "name": "Node-Mesh_9_texcoords",
      "componentType": 5126,
      "count": 1536,
      "min": [
        0,
        0
      ],
      "max": [
        1,
        1
      ],
      "type": "VEC2",
      "bufferView": 2,
      "byteOffset": 403824
    },
    {
      "name": "Node-Mesh_9_indices",
      "componentType": 5123,
      "count": 2304,
      "min": [
        0
      ],
      "max": [
        1535
      ],
      "type": "SCALAR",
      "bufferView": 3,
      "byteOffset": 378196
    },
    {
      "name": "Node-Mesh_10_positions",
      "componentType": 5126,
      "count": 333,
      "min": [
        309.34808349609375,
        57.61568069458008,
        93.42425537109375
      ],
      "max": [
        310.5896301269531,
        61.24265670776367,
        109.53070831298828
      ],
      "type": "VEC3",
      "bufferView": 0,
      "byteOffset": 624168
    },
    {
      "name": "Node-Mesh_10_normals",
      "componentType": 5126,
      "count": 333,
      "min": [
        -1,
        -0.9999813437461853,
        -0.9993708729743958
      ],
      "max": [
        0,
        1,
        0.9998441934585571
      ],
      "type": "VEC3",
      "bufferView": 1,
      "byteOffset": 624168
    },
    {
      "name": "Node-Mesh_10_texcoords",
      "componentType": 5126,
      "count": 333,
      "min": [
        0,
        0
      ],
      "max": [
        1,
        1
      ],
      "type": "VEC2",
      "bufferView": 2,
      "byteOffset": 416112
    },
    {
      "name": "Node-Mesh_10_indices",
      "componentType": 5123,
      "count": 975,
      "min": [
        0
      ],
      "max": [
        332
      ],
      "type": "SCALAR",
      "bufferView": 3,
      "byteOffset": 382804
    },
    {
      "name": "Node-Mesh_11_positions",
      "componentType": 5126,
      "count": 32,
      "min": [
        271.7315673828125,
        75.5,
        93.86778259277344
      ],
      "max": [
        272.7315673828125,
        78,
        107.36778259277344
      ],
      "type": "VEC3",
      "bufferView": 0,
      "byteOffset": 628164
    },
    {
      "name": "Node-Mesh_11_normals",
      "componentType": 5126,
      "count": 32,
      "min": [
        0,
        -1,
        -1
      ],
      "max": [
        1,
        1,
        1
      ],
      "type": "VEC3",
      "bufferView": 1,
      "byteOffset": 628164
    },
    {
      "name": "Node-Mesh_11_texcoords",
      "componentType": 5126,
      "count": 32,
      "min": [
        0,
        0
      ],
      "max": [
        1,
        1
      ],
      "type": "VEC2",
      "bufferView": 2,
      "byteOffset": 418776
    },
    {
      "name": "Node-Mesh_11_indices",
      "componentType": 5123,
      "count": 60,
      "min": [
        0
      ],
      "max": [
        31
      ],
      "type": "SCALAR",
      "bufferView": 3,
      "byteOffset": 384756
    }
  ],
  "asset": {
    "generator": "obj2gltf",
    "version": "2.0"
  },
  "buffers": [
    {
      "name": "cx-test",
      "byteLength": 2061004,
      "uri": "data:application/octet-stream;base64,"
    }
  ],
  "bufferViews": [
    {
      "name": "bufferView_0",
      "buffer": 0,
      "byteLength": 628548,
      "byteOffset": 0,
      "byteStride": 12,
      "target": 34962
    },
    {
      "name": "bufferView_1",
      "buffer": 0,
      "byteLength": 628548,
      "byteOffset": 628548,
      "byteStride": 12,
      "target": 34962
    },
    {
      "name": "bufferView_2",
      "buffer": 0,
      "byteLength": 419032,
      "byteOffset": 1257096,
      "byteStride": 8,
      "target": 34962
    },
    {
      "name": "bufferView_3",
      "buffer": 0,
      "byteLength": 384876,
      "byteOffset": 1676128,
      "target": 34963
    }
  ],
  "materials": [
    {
      "name": "/Metal_BlackSteel_Bump",
      "pbrMetallicRoughness": {
        "baseColorFactor": [
          0.5059,
          0.5059,
          0.5059,
          1
        ],
        "metallicFactor": 0,
        "roughnessFactor": 0.934975
      },
      "emissiveFactor": [
        0,
        0,
        0
      ],
      "alphaMode": "OPAQUE",
      "doubleSided": false
    },
    {
      "name": "/Metal_Stainless",
      "pbrMetallicRoughness": {
        "baseColorFactor": [
          0,
          0,
          0,
          1
        ],
        "metallicFactor": 0,
        "roughnessFactor": 0.934975
      },
      "emissiveFactor": [
        0,
        0,
        0
      ],
      "alphaMode": "OPAQUE",
      "doubleSided": false
    },
    {
      "name": "/Colo_BlackShiny_Bump",
      "pbrMetallicRoughness": {
        "baseColorFactor": [
          0.2118,
          0.2118,
          0.2118,
          1
        ],
        "metallicFactor": 0,
        "roughnessFactor": 0.934975
      },
      "emissiveFactor": [
        0,
        0,
        0
      ],
      "alphaMode": "OPAQUE",
      "doubleSided": false
    },
    {
      "name": "/Wood_WhiteOakHoriz_Bump",
      "pbrMetallicRoughness": {
        "baseColorFactor": [
          0.5059,
          0.5059,
          0.5059,
          1
        ],
        "metallicFactor": 0,
        "roughnessFactor": 0.934975
      },
      "emissiveFactor": [
        0,
        0,
        0
      ],
      "alphaMode": "OPAQUE",
      "doubleSided": false
    },
    {
      "name": "/Wood_WhiteOak_Bump",
      "pbrMetallicRoughness": {
        "baseColorFactor": [
          0.5059,
          0.5059,
          0.5059,
          1
        ],
        "metallicFactor": 0,
        "roughnessFactor": 0.934975
      },
      "emissiveFactor": [
        0,
        0,
        0
      ],
      "alphaMode": "OPAQUE",
      "doubleSided": false
    },
    {
      "name": "/Light3",
      "pbrMetallicRoughness": {
        "baseColorFactor": [
          0.4902,
          0.4902,
          0.4902,
          1
        ],
        "metallicFactor": 0,
        "roughnessFactor": 1
      },
      "emissiveFactor": [
        0,
        0,
        0
      ],
      "alphaMode": "OPAQUE",
      "doubleSided": false
    },
    {
      "name": "Default",
      "pbrMetallicRoughness": {
        "baseColorFactor": [
          1,
          1,
          1,
          1
        ],
        "metallicFactor": 0,
        "roughnessFactor": 1
      },
      "emissiveFactor": [
        0,
        0,
        0
      ],
      "alphaMode": "OPAQUE",
      "doubleSided": false
    },
    {
      "name": "/Boxes_Grey_Bump",
      "pbrMetallicRoughness": {
        "baseColorFactor": [
          0.7569,
          0.7569,
          0.7569,
          1
        ],
        "metallicFactor": 0,
        "roughnessFactor": 0.934975
      },
      "emissiveFactor": [
        0,
        0,
        0
      ],
      "alphaMode": "OPAQUE",
      "doubleSided": false
    },
    {
      "name": "/Boxes_Blue_Bump",
      "pbrMetallicRoughness": {
        "baseColorFactor": [
          0,
          0.7569,
          1,
          1
        ],
        "metallicFactor": 0,
        "roughnessFactor": 0.934975
      },
      "emissiveFactor": [
        0,
        0,
        0
      ],
      "alphaMode": "OPAQUE",
      "doubleSided": false
    },
    {
      "name": "/Boxes_Orange_Bump",
      "pbrMetallicRoughness": {
        "baseColorFactor": [
          1,
          0.6157,
          0,
          1
        ],
        "metallicFactor": 0,
        "roughnessFactor": 0.934975
      },
      "emissiveFactor": [
        0,
        0,
        0
      ],
      "alphaMode": "OPAQUE",
      "doubleSided": false
    },
    {
      "name": "/LightSign3",
      "pbrMetallicRoughness": {
        "baseColorFactor": [
          0.4902,
          0.4902,
          0.4902,
          1
        ],
        "metallicFactor": 0,
        "roughnessFactor": 1
      },
      "emissiveFactor": [
        0,
        0,
        0
      ],
      "alphaMode": "OPAQUE",
      "doubleSided": false
    },
    {
      "name": "/Metal_Speaker",
      "pbrMetallicRoughness": {
        "baseColorFactor": [
          0.0706,
          0.0706,
          0.0706,
          1
        ],
        "metallicFactor": 0,
        "roughnessFactor": 0.934975
      },
      "emissiveFactor": [
        0,
        0,
        0
      ],
      "alphaMode": "OPAQUE",
      "doubleSided": false
    }
  ],
  "meshes": [
    {
      "name": "Node-Mesh",
      "primitives": [
        {
          "attributes": {
            "POSITION": 0,
            "NORMAL": 1,
            "TEXCOORD_0": 2
          },
          "indices": 3,
          "material": 0,
          "mode": 4
        },
        {
          "attributes": {
            "POSITION": 4,
            "NORMAL": 5,
            "TEXCOORD_0": 6
          },
          "indices": 7,
          "material": 1,
          "mode": 4
        },
        {
          "attributes": {
            "POSITION": 8,
            "NORMAL": 9,
            "TEXCOORD_0": 10
          },
          "indices": 11,
          "material": 2,
          "mode": 4
        },
        {
          "attributes": {
            "POSITION": 12,
            "NORMAL": 13,
            "TEXCOORD_0": 14
          },
          "indices": 15,
          "material": 3,
          "mode": 4
        },
        {
          "attributes": {
            "POSITION": 16,
            "NORMAL": 17,
            "TEXCOORD_0": 18
          },
          "indices": 19,
          "material": 4,
          "mode": 4
        },
        {
          "attributes": {
            "POSITION": 20,
            "NORMAL": 21,
            "TEXCOORD_0": 22
          },
          "indices": 23,
          "material": 5,
          "mode": 4
        },
        {
          "attributes": {
            "POSITION": 24,
            "NORMAL": 25,
            "TEXCOORD_0": 26
          },
          "indices": 27,
          "material": 6,
          "mode": 4
        },
        {
          "attributes": {
            "POSITION": 28,
            "NORMAL": 29,
            "TEXCOORD_0": 30
          },
          "indices": 31,
          "material": 7,
          "mode": 4
        },
        {
          "attributes": {
            "POSITION": 32,
            "NORMAL": 33,
            "TEXCOORD_0": 34
          },
          "indices": 35,
          "material": 8,
          "mode": 4
        },
        {
          "attributes": {
            "POSITION": 36,
            "NORMAL": 37,
            "TEXCOORD_0": 38
          },
          "indices": 39,
          "material": 9,
          "mode": 4
        },
        {
          "attributes": {
            "POSITION": 40,
            "NORMAL": 41,
            "TEXCOORD_0": 42
          },
          "indices": 43,
          "material": 10,
          "mode": 4
        },
        {
          "attributes": {
            "POSITION": 44,
            "NORMAL": 45,
            "TEXCOORD_0": 46
          },
          "indices": 47,
          "material": 11,
          "mode": 4
        }
      ]
    }
  ],
  "nodes": [
    {
      "name": "Node",
      "mesh": 0
    }
  ],
  "scene": 0,
  "scenes": [
    {
      "nodes": [
        0
      ]
    }
  ]
}
